<?xml version="1.0" standalone="no"?>
<!DOCTYPE svg PUBLIC "-//W3C//DTD SVG 20010904//EN"
 "http://www.w3.org/TR/2001/REC-SVG-20010904/DTD/svg10.dtd">
<svg version="1.0" xmlns="http://www.w3.org/2000/svg"
 width="1280.000000pt" height="1280.000000pt" viewBox="0 0 1280.000000 1280.000000"
 preserveAspectRatio="xMidYMid meet">
<metadata>
Created by potrace 1.14, written by Peter Selinger 2001-2017
</metadata>
<g transform="translate(0.000000,1280.000000) scale(0.100000,-0.100000)"
fill="#000000" stroke="none">
<path d="M6163 10314 c5 -9 -9 -11 -49 -10 -30 1 -57 -1 -60 -6 -3 -5 -10 -6
-15 -2 -18 11 -110 10 -105 -1 2 -7 -19 -10 -60 -9 -36 2 -64 -2 -64 -7 0 -6
-7 -6 -19 0 -10 6 -21 8 -24 4 -6 -5 -48 -12 -92 -15 -11 -1 -24 -4 -30 -8 -5
-4 -27 -6 -47 -5 -20 1 -35 -2 -32 -7 3 -4 -5 -6 -18 -4 -13 2 -29 -2 -37 -8
-12 -8 -13 -8 -7 2 6 10 4 11 -10 4 -40 -20 -84 -30 -84 -20 0 7 -5 7 -13 -1
-8 -6 -22 -12 -33 -14 -10 -1 -25 -6 -31 -10 -7 -5 -17 -5 -23 -2 -5 3 -10 0
-10 -7 0 -9 -3 -9 -10 2 -8 13 -14 8 -12 -11 1 -3 -9 -5 -21 -4 -12 1 -28 -2
-34 -8 -7 -5 -13 -7 -13 -3 0 4 -13 0 -30 -9 -16 -8 -32 -15 -35 -15 -24 -1
-65 -14 -65 -22 0 -6 -6 -6 -14 1 -11 9 -15 8 -20 -4 -3 -9 -14 -15 -23 -13
-10 1 -32 -5 -50 -14 -23 -12 -34 -13 -44 -4 -9 8 -10 8 -4 -3 6 -11 4 -13 -8
-8 -11 4 -17 1 -17 -8 0 -8 -8 -12 -20 -10 -11 2 -20 -1 -20 -7 0 -6 -3 -8 -6
-5 -4 3 -16 1 -28 -5 -11 -7 -23 -13 -26 -13 -3 0 -16 -7 -30 -15 -14 -7 -25
-12 -25 -10 0 2 -10 0 -23 -4 -12 -4 -20 -12 -17 -17 3 -5 -1 -6 -9 -3 -9 3
-16 1 -16 -6 0 -6 -4 -8 -10 -5 -5 3 -19 -1 -31 -9 -12 -8 -28 -12 -37 -9 -9
4 -13 2 -9 -4 6 -10 -27 -27 -45 -24 -5 1 -8 -4 -8 -9 0 -6 -8 -10 -19 -10
-10 0 -24 -7 -31 -15 -7 -8 -16 -12 -21 -9 -5 3 -9 0 -9 -5 0 -6 -7 -11 -15
-11 -8 0 -15 -5 -15 -11 0 -5 -4 -8 -9 -5 -4 3 -19 -3 -31 -14 -13 -11 -29
-20 -37 -20 -7 0 -13 -4 -13 -9 0 -9 -37 -25 -50 -23 -3 0 -9 -6 -13 -14 -5
-8 -12 -12 -18 -9 -5 4 -9 1 -9 -5 0 -6 -10 -15 -22 -20 -28 -12 -57 -31 -76
-47 -7 -7 -19 -13 -27 -13 -7 0 -15 -7 -19 -15 -3 -8 -11 -12 -19 -9 -8 3 -21
-6 -31 -20 -9 -15 -23 -26 -31 -26 -8 0 -15 -5 -15 -12 0 -6 -3 -9 -6 -6 -3 3
-19 -7 -37 -23 -17 -16 -33 -27 -35 -25 -2 3 -12 -4 -23 -15 -11 -11 -25 -17
-31 -13 -6 4 -8 3 -5 -3 5 -8 -25 -43 -38 -43 -5 0 -47 -34 -77 -62 -10 -10
-18 -15 -18 -12 0 4 -11 -4 -23 -18 -13 -14 -34 -31 -46 -37 -12 -7 -19 -16
-16 -21 3 -5 -4 -11 -15 -15 -11 -3 -20 -13 -20 -21 0 -8 -4 -13 -8 -10 -5 3
-23 -10 -40 -29 -16 -19 -35 -35 -41 -35 -6 0 -10 -6 -9 -12 2 -7 -3 -12 -9
-10 -7 1 -13 -3 -13 -9 0 -13 -58 -69 -72 -69 -5 0 -7 -4 -3 -9 3 -5 -5 -18
-18 -28 -13 -10 -25 -22 -28 -28 -2 -5 -20 -26 -40 -47 -21 -20 -34 -40 -30
-44 3 -4 -2 -4 -12 -1 -10 4 -16 3 -12 -2 3 -5 -10 -25 -28 -44 -19 -18 -37
-41 -40 -50 -4 -10 -11 -17 -17 -17 -5 0 -10 -7 -10 -15 0 -8 -7 -15 -16 -15
-8 0 -12 -5 -9 -10 4 -6 -8 -24 -25 -40 -17 -16 -29 -34 -25 -40 3 -5 -1 -10
-9 -10 -9 0 -16 -7 -16 -15 0 -8 -4 -15 -10 -15 -5 0 -10 -7 -10 -15 0 -7 -8
-19 -17 -24 -10 -6 -14 -11 -10 -11 5 0 1 -7 -7 -16 -9 -8 -13 -21 -9 -27 3
-7 3 -9 -2 -5 -11 10 -44 -34 -37 -51 3 -8 1 -12 -5 -8 -9 6 -20 -9 -25 -33
-1 -3 -6 -10 -12 -17 -30 -34 -36 -43 -36 -58 0 -8 -4 -15 -8 -15 -5 0 -17
-18 -27 -40 -10 -22 -22 -40 -27 -40 -5 0 -7 -4 -3 -9 3 -5 -1 -16 -9 -24 -8
-8 -12 -17 -9 -21 4 -3 1 -6 -5 -6 -7 0 -12 -7 -12 -15 0 -8 -4 -15 -10 -15
-5 0 -6 -7 -3 -17 5 -12 3 -14 -7 -8 -10 6 -12 4 -7 -9 4 -10 1 -19 -8 -22 -7
-3 -11 -12 -9 -19 3 -7 0 -16 -5 -20 -6 -3 -8 -12 -5 -18 4 -7 4 -9 0 -5 -11
9 -35 -14 -29 -28 2 -7 0 -15 -6 -19 -6 -3 -11 -15 -11 -26 0 -10 -5 -19 -11
-19 -5 0 -7 -4 -4 -10 3 -5 1 -10 -5 -10 -6 0 -8 -4 -5 -10 3 -5 1 -10 -5 -10
-6 0 -9 -4 -5 -9 3 -5 0 -15 -7 -23 -13 -14 -20 -33 -21 -55 0 -7 -4 -13 -8
-13 -5 0 -11 -16 -15 -35 -3 -19 -11 -35 -17 -35 -6 0 -8 -3 -5 -6 4 -3 0 -21
-8 -40 -8 -19 -12 -40 -8 -46 4 -6 3 -8 -3 -5 -9 6 -28 -45 -24 -65 0 -5 -4
-8 -9 -8 -6 0 -10 -5 -10 -11 0 -5 6 -7 13 -4 6 4 5 1 -4 -7 -9 -7 -14 -19
-12 -25 3 -7 1 -13 -4 -13 -5 0 -10 -9 -11 -20 -4 -43 -6 -50 -13 -50 -4 0 -6
-9 -4 -19 2 -11 -3 -22 -12 -25 -12 -5 -13 -9 -3 -21 9 -11 9 -15 1 -15 -7 0
-10 -4 -6 -9 3 -5 1 -13 -5 -16 -8 -5 -7 -12 2 -23 10 -12 10 -14 1 -8 -8 4
-13 1 -13 -8 0 -25 -1 -30 -10 -41 -5 -6 -7 -24 -6 -42 1 -17 -1 -30 -5 -27
-4 2 -10 -15 -14 -38 -4 -24 -10 -54 -12 -68 -3 -14 -7 -36 -8 -50 -2 -14 -4
-26 -5 -27 -1 -2 -4 -12 -5 -23 -1 -11 -4 -21 -5 -22 -3 -3 -4 -11 -13 -85 -3
-23 -9 -47 -13 -54 -5 -8 -3 -9 6 -4 9 6 11 4 5 -5 -5 -7 -10 -33 -11 -58 -2
-24 -8 -50 -13 -56 -7 -9 -7 -16 2 -25 9 -9 9 -14 -2 -20 -10 -6 -10 -10 -2
-16 9 -5 9 -10 0 -21 -9 -11 -8 -14 2 -14 9 0 10 -3 4 -8 -6 -4 -10 -45 -10
-97 1 -49 -4 -96 -9 -104 -7 -9 -7 -12 -1 -9 7 4 10 -49 9 -153 0 -87 4 -159
9 -159 4 0 5 -6 1 -12 -10 -16 -13 -48 -4 -48 3 0 7 -19 7 -42 4 -104 8 -138
18 -138 5 0 3 -5 -5 -10 -12 -7 -12 -10 -1 -10 9 0 11 -8 7 -24 -3 -14 -2 -27
2 -30 5 -3 8 -21 7 -40 -1 -20 1 -36 4 -36 4 0 8 -15 10 -32 5 -47 7 -61 15
-79 4 -10 7 -23 5 -30 -3 -29 1 -40 14 -33 8 5 8 2 -2 -9 -10 -13 -10 -17 -1
-17 7 0 10 -7 7 -15 -4 -8 -2 -17 3 -20 5 -3 7 -12 3 -20 -3 -8 -1 -15 4 -15
5 0 9 -10 10 -22 1 -32 7 -61 16 -75 5 -7 6 -13 2 -13 -3 0 1 -13 10 -29 11
-23 12 -31 2 -34 -9 -4 -9 -6 1 -6 6 -1 12 -10 12 -21 0 -11 4 -20 10 -20 5 0
9 -3 9 -7 -4 -25 2 -53 11 -48 5 3 7 0 4 -8 -3 -8 4 -37 15 -64 11 -28 17 -54
14 -57 -4 -3 -1 -6 5 -6 6 0 9 -6 6 -13 -2 -7 4 -21 14 -30 11 -10 18 -28 16
-42 -1 -14 3 -25 9 -25 5 0 7 -3 4 -7 -4 -3 1 -15 10 -26 13 -15 14 -18 3 -12
-10 6 -9 1 3 -13 11 -11 16 -25 13 -31 -3 -5 0 -15 7 -23 14 -13 17 -19 25
-50 2 -10 8 -18 13 -18 4 0 6 -9 4 -20 -2 -11 0 -20 5 -20 10 0 40 -57 40 -77
0 -7 5 -13 11 -13 5 0 7 -5 4 -10 -3 -6 1 -13 9 -16 9 -3 13 -10 10 -15 -3 -6
0 -16 6 -24 7 -8 9 -15 5 -15 -5 0 2 -8 13 -19 24 -20 29 -36 10 -26 -7 4 -5
0 5 -8 9 -8 17 -19 17 -26 0 -6 5 -11 11 -11 6 0 9 -6 6 -13 -3 -8 3 -20 14
-28 10 -7 19 -19 19 -26 0 -7 5 -13 11 -13 5 0 7 -4 4 -10 -3 -5 -2 -10 3 -10
9 0 25 -37 23 -52 -1 -5 6 -8 15 -8 8 0 13 -4 10 -8 -3 -5 3 -18 13 -28 9 -11
16 -25 13 -32 -2 -7 0 -12 5 -11 20 3 27 -2 13 -11 -13 -8 -13 -10 2 -10 9 0
20 -9 23 -21 4 -12 14 -29 23 -38 28 -29 47 -62 44 -74 -2 -7 -1 -9 3 -5 9 9
101 -113 96 -127 -1 -5 0 -7 4 -3 7 7 35 -15 35 -27 0 -7 30 -42 88 -101 18
-19 30 -34 27 -34 -3 0 17 -22 44 -50 27 -27 46 -52 43 -55 -3 -3 3 -5 13 -5
10 0 16 -3 12 -6 -7 -8 36 -53 46 -47 4 2 7 -1 7 -8 0 -11 45 -59 56 -59 2 0
18 -16 35 -35 17 -19 35 -32 40 -29 5 3 9 -2 9 -10 0 -9 6 -16 14 -16 8 0 18
-5 22 -12 5 -7 3 -8 -6 -3 -9 5 -11 4 -6 -3 4 -7 14 -12 22 -12 8 0 14 -5 14
-12 0 -6 3 -8 6 -5 4 3 15 -5 26 -18 11 -14 26 -25 34 -25 8 0 12 -4 9 -10 -3
-5 0 -10 7 -10 7 0 19 -9 26 -21 7 -12 16 -19 19 -16 3 3 18 -8 34 -24 16 -16
29 -27 29 -23 0 4 14 -7 30 -24 17 -18 30 -28 30 -23 0 5 14 -4 31 -20 17 -16
35 -29 41 -29 5 0 7 -4 4 -9 -4 -5 3 -7 14 -4 14 4 20 1 18 -8 -2 -7 2 -13 9
-14 7 0 18 -6 24 -13 7 -6 19 -12 26 -12 7 0 13 -3 13 -8 0 -4 14 -13 30 -20
17 -8 27 -18 24 -24 -4 -6 -3 -8 3 -5 5 3 26 -5 46 -18 20 -14 41 -25 46 -25
6 0 11 -4 11 -10 0 -5 7 -10 15 -10 8 0 15 -5 15 -12 0 -6 3 -8 7 -5 3 4 12
-1 20 -11 8 -9 12 -11 8 -4 -3 7 10 1 30 -13 21 -13 42 -22 48 -18 6 3 7 1 3
-5 -6 -11 6 -17 27 -13 4 1 10 -6 13 -14 3 -8 10 -12 15 -9 5 3 16 -2 25 -11
9 -9 23 -14 30 -11 7 3 16 0 20 -6 5 -7 2 -8 -6 -3 -9 5 -11 4 -6 -4 4 -6 11
-9 16 -6 5 3 20 -1 33 -10 13 -8 27 -12 30 -8 4 3 7 1 7 -5 0 -7 9 -12 20 -12
11 0 20 -5 20 -11 0 -5 5 -7 10 -4 6 3 10 2 10 -4 0 -5 8 -8 18 -7 9 2 24 -5
34 -16 12 -14 17 -15 21 -6 4 11 6 10 6 0 1 -7 6 -10 11 -7 6 3 10 1 10 -4 0
-6 3 -10 8 -10 16 3 72 -14 72 -22 0 -5 10 -9 23 -9 12 0 31 -6 42 -14 11 -7
28 -12 38 -10 9 1 17 -2 17 -7 0 -6 5 -7 10 -4 6 3 10 1 10 -5 0 -7 7 -10 15
-7 8 4 17 2 20 -4 4 -5 11 -7 16 -4 5 4 9 2 9 -4 0 -5 11 -8 25 -7 13 2 22 -1
19 -5 -4 -8 17 -12 42 -8 4 0 10 -4 13 -9 3 -6 20 -12 36 -15 17 -3 41 -9 55
-12 14 -4 31 -7 38 -7 6 -1 12 -5 12 -9 0 -4 9 -6 20 -4 11 2 22 0 25 -5 3 -5
12 -7 20 -3 8 3 15 1 15 -3 0 -8 30 -13 98 -17 12 0 22 -4 22 -7 0 -5 37 -10
88 -13 6 0 12 -3 12 -6 0 -4 13 -7 30 -7 20 -1 27 2 23 10 -3 6 2 3 13 -6 11
-9 31 -15 47 -14 15 2 27 0 27 -4 0 -4 12 -6 28 -6 15 1 35 -2 44 -6 10 -5 18
-3 21 5 3 6 6 7 6 1 1 -6 17 -9 36 -8 24 2 33 0 29 -8 -5 -7 -2 -8 7 -2 21 13
39 14 39 1 0 -8 3 -8 8 -2 10 14 32 17 32 4 0 -8 4 -8 14 0 10 9 16 9 21 1 5
-8 10 -8 20 0 7 6 16 7 19 2 3 -5 64 -9 135 -9 71 -1 135 -4 140 -8 6 -3 11
-2 11 3 0 4 17 7 37 5 20 -1 43 2 50 9 10 8 17 7 30 -3 19 -16 23 -16 34 3 7
10 9 10 9 0 0 -10 5 -10 20 -2 15 8 20 8 20 -1 0 -8 4 -8 13 -2 6 6 29 10 50
9 20 -1 37 1 37 4 0 3 20 5 45 5 25 -1 45 2 45 8 0 5 7 6 16 3 9 -3 21 -3 27
1 6 4 25 8 42 9 16 1 30 2 30 3 0 2 10 4 23 7 17 3 21 1 16 -8 -6 -10 -4 -10
7 -2 16 13 74 29 102 27 9 0 17 4 17 9 0 5 5 6 10 3 6 -4 17 -1 25 5 10 8 15
9 15 2 0 -7 12 -6 34 3 18 8 36 11 40 8 3 -4 6 0 6 8 0 11 2 11 10 -1 6 -9 10
-11 10 -3 0 7 7 10 15 7 8 -4 15 -2 15 4 0 5 6 9 13 9 22 -2 92 15 105 26 8 6
12 5 12 -4 0 -9 3 -10 8 -3 9 13 43 28 60 25 6 -1 12 3 12 9 0 5 5 10 11 10 5
0 8 -4 4 -9 -3 -5 14 1 37 13 24 13 51 22 61 20 10 -1 14 2 10 9 -4 6 0 8 10
4 9 -3 19 -2 22 4 4 5 11 7 16 4 5 -4 9 -2 9 4 0 6 7 8 15 5 8 -4 15 -1 15 6
0 7 7 10 15 6 9 -3 18 1 21 9 3 7 12 11 20 8 8 -3 14 0 14 6 0 6 5 11 11 11 5
0 8 -4 5 -9 -3 -4 10 -1 28 8 19 9 32 19 30 23 -3 4 5 5 16 3 11 -2 20 0 20 4
0 5 10 12 23 16 12 4 24 8 27 10 3 1 20 8 38 16 17 7 32 17 32 21 0 4 8 8 17
8 9 0 25 7 35 17 12 11 18 12 18 4 0 -9 4 -9 15 1 32 29 45 38 45 33 0 -4 13
3 29 14 15 11 31 18 35 14 3 -3 6 0 6 7 0 7 3 11 6 7 3 -3 11 -1 18 4 18 16
178 109 188 109 4 0 8 5 8 10 0 6 6 10 13 10 7 0 22 8 33 19 11 10 30 22 41
25 12 4 24 13 27 21 3 8 15 15 27 15 12 0 23 8 26 19 3 11 11 17 18 15 7 -3
15 2 19 11 3 9 10 14 14 11 5 -3 15 4 22 15 8 10 20 19 26 19 7 0 15 7 18 16
3 8 10 12 16 9 5 -3 10 1 10 10 0 9 5 13 10 10 6 -3 13 1 16 9 3 8 14 18 25
21 11 4 17 10 14 15 -3 4 7 11 20 14 14 4 23 11 20 16 -3 6 -2 10 3 10 14 0
61 47 54 54 -3 4 2 4 12 0 14 -5 17 -4 12 4 -4 7 -2 12 4 12 6 0 30 20 55 44
24 24 46 42 49 38 3 -3 6 2 6 11 0 9 4 17 10 17 15 0 61 51 54 61 -3 5 -2 9 3
8 21 -4 33 2 33 17 0 8 5 12 10 9 6 -3 10 -1 10 4 0 15 66 81 80 81 6 0 9 4 6
8 -3 5 7 21 22 37 15 16 26 33 24 38 -1 5 2 6 8 2 5 -3 15 5 22 19 6 14 18 26
25 26 8 0 12 4 9 8 -3 4 11 26 30 48 54 62 59 68 57 76 -2 5 3 8 11 8 8 0 17
11 20 25 4 14 12 24 18 22 7 -1 12 3 13 10 0 6 10 23 22 36 12 14 19 28 16 31
-3 3 2 8 11 12 9 3 16 11 16 16 0 5 9 23 21 39 11 16 18 29 15 29 -3 0 2 8 12
18 9 11 20 17 24 15 3 -2 5 5 4 14 -2 10 4 25 14 33 9 8 26 36 39 62 12 26 27
46 33 45 7 -1 12 11 12 26 1 15 8 32 16 37 8 5 11 10 7 10 -5 0 -1 7 8 16 9 9
14 23 11 31 -3 8 -1 11 4 8 5 -3 12 5 16 19 3 14 12 30 19 36 8 6 11 19 8 27
-4 10 -2 14 4 10 10 -6 29 37 25 56 -1 4 2 7 7 7 9 0 35 58 32 73 0 4 4 7 11
7 6 0 8 3 5 6 -4 4 3 20 15 37 12 17 16 27 10 23 -7 -4 -4 8 7 27 11 19 17 38
14 41 -4 3 -1 6 5 6 7 0 11 3 10 8 -3 14 14 62 23 62 4 0 6 9 4 20 -2 11 1 20
7 20 6 0 8 3 5 6 -3 4 -1 16 5 28 7 11 13 24 14 29 1 4 2 8 4 10 2 3 10 38 12
59 1 9 6 14 10 12 8 -5 12 10 9 34 -1 8 3 20 10 28 6 8 9 14 5 14 -3 0 0 15 7
33 8 17 18 50 22 72 5 22 10 47 12 55 3 8 6 24 8 35 2 11 4 22 5 25 1 3 2 8 1
13 0 4 3 7 7 7 5 0 8 10 7 23 -1 12 3 28 9 36 6 8 10 16 9 18 -7 8 -2 64 5 60
4 -3 8 14 9 36 5 75 7 87 15 87 11 0 6 23 -7 32 -6 5 -5 8 2 8 7 0 10 7 6 17
-4 9 -2 14 3 10 5 -3 10 3 10 13 0 10 -5 16 -10 13 -5 -4 -6 -1 -1 7 4 7 9 23
11 34 2 12 5 32 8 45 3 13 6 57 8 97 1 40 6 70 11 67 5 -3 4 4 -2 15 -14 27
-14 35 2 26 8 -5 8 -2 -2 9 -9 12 -10 17 -2 17 8 0 9 5 1 19 -7 13 -7 22 0 26
7 4 6 13 -1 27 -8 15 -8 19 0 14 6 -4 11 -3 11 3 0 5 -5 13 -10 16 -7 4 -7 13
0 24 6 12 5 22 -3 31 -9 10 -9 11 0 6 8 -4 11 1 10 14 -1 11 -5 20 -10 20 -5
0 -5 6 2 13 8 10 7 17 -2 27 -9 10 -9 11 1 6 14 -8 14 0 3 29 -5 11 -4 28 1
39 6 10 6 21 2 25 -12 8 -14 41 -4 41 5 0 8 9 7 20 -1 11 -6 20 -12 20 -5 0
-3 5 5 10 9 6 10 10 3 10 -6 0 -11 9 -10 20 1 11 5 20 10 20 4 0 5 6 0 13 -8
12 -10 36 -12 140 -1 27 -4 46 -8 44 -5 -3 -9 16 -10 41 -2 47 -10 127 -13
127 -1 0 -4 18 -6 40 -3 22 -10 42 -16 46 -7 4 -6 8 3 12 9 4 10 8 4 14 -11 9
-12 14 -18 67 -2 19 -10 43 -18 53 -9 11 -10 14 -1 9 6 -4 12 -3 12 3 0 5 -5
13 -10 16 -6 4 -8 11 -5 16 4 5 0 9 -7 9 -9 0 -9 3 2 10 8 5 10 10 5 10 -10 0
-14 14 -17 58 -1 6 -6 12 -11 12 -5 0 -7 9 -4 20 3 11 1 20 -4 20 -5 0 -8 3
-7 8 4 16 -14 92 -23 92 -5 0 -9 14 -9 30 0 17 -4 30 -8 30 -5 0 -9 6 -10 13
-1 12 -9 47 -12 57 -1 3 -3 11 -4 18 0 7 -8 17 -16 22 -13 9 -13 10 0 10 12 0
13 2 1 9 -8 5 -14 22 -15 39 0 17 -4 28 -8 25 -7 -4 -12 12 -9 30 0 4 -4 7 -9
7 -6 0 -10 11 -10 24 0 13 -4 26 -10 28 -5 2 -11 14 -12 28 -2 14 -10 32 -18
40 -8 8 -17 24 -18 35 -2 11 -9 23 -15 27 -7 4 -8 8 -3 8 5 0 3 6 -3 13 -6 8
-8 17 -4 20 3 4 1 7 -5 7 -7 0 -12 7 -12 16 0 9 -8 23 -17 31 -10 8 -12 12 -6
8 9 -4 11 -1 7 9 -3 9 -10 16 -15 16 -5 0 -9 6 -9 13 0 18 -24 67 -32 67 -5 0
-8 9 -8 20 0 11 -4 20 -10 20 -5 0 -10 7 -10 15 0 8 -5 15 -12 15 -6 0 -9 3
-5 6 3 4 -5 23 -18 43 -14 19 -25 41 -25 48 0 7 -4 13 -9 13 -5 0 -14 14 -21
30 -7 17 -17 30 -23 30 -6 0 -8 3 -4 6 3 4 1 12 -6 20 -29 32 -37 44 -32 44 4
0 -3 13 -14 29 -11 15 -17 32 -13 36 4 5 2 5 -4 2 -6 -3 -17 5 -24 18 -7 14
-17 25 -22 25 -5 0 -6 5 -3 10 3 6 1 10 -5 10 -6 0 -9 4 -6 8 3 5 -4 15 -15
22 -10 8 -19 20 -19 28 0 7 -4 10 -10 7 -5 -3 -10 1 -10 9 0 8 -11 28 -25 43
-41 47 -44 51 -39 56 3 3 -4 8 -15 12 -12 3 -21 13 -21 21 0 8 -5 14 -12 14
-6 0 -9 3 -6 6 3 3 -9 21 -28 39 -19 19 -34 38 -34 42 0 5 -13 19 -29 33 -17
13 -28 27 -25 32 3 4 0 8 -6 8 -6 0 -18 7 -26 15 -9 8 -13 15 -10 15 3 0 -6
11 -20 25 -14 14 -29 25 -34 25 -9 0 -14 15 -11 33 1 5 -2 6 -7 3 -4 -2 -16 6
-26 20 -11 13 -25 24 -33 24 -8 0 -12 3 -10 8 5 9 -30 42 -37 34 -3 -3 -6 3
-6 12 0 12 -5 16 -15 12 -8 -3 -14 -2 -14 2 3 18 -2 32 -12 32 -14 0 -39 26
-39 40 0 6 -4 9 -9 6 -5 -4 -21 8 -35 25 -14 17 -26 27 -26 22 0 -4 -11 4 -24
19 -12 15 -26 25 -29 22 -3 -3 -10 4 -17 15 -6 12 -15 19 -19 16 -5 -3 -12 2
-15 11 -3 8 -10 12 -16 9 -5 -3 -10 1 -10 10 0 9 -4 13 -10 10 -5 -3 -10 -1
-10 4 0 6 -6 11 -12 11 -7 0 -26 14 -42 30 -16 16 -33 27 -37 24 -5 -3 -9 2
-9 11 0 9 -4 14 -8 11 -5 -3 -20 6 -35 20 -14 13 -32 24 -40 24 -7 0 -24 11
-37 25 -14 15 -30 23 -39 20 -9 -3 -12 -3 -8 1 7 8 -90 74 -109 74 -7 0 -15 7
-18 16 -3 8 -10 12 -16 9 -5 -3 -10 -1 -10 5 0 6 -4 9 -9 5 -6 -3 -14 3 -20
12 -8 14 -11 15 -11 3 -1 -9 -5 -6 -10 8 -6 15 -18 22 -35 22 -14 0 -25 4 -25
8 0 5 -16 14 -35 22 -19 8 -35 17 -35 22 0 4 -3 8 -7 7 -16 -2 -53 14 -53 22
0 5 -3 9 -7 8 -16 -2 -53 14 -53 23 0 5 -4 7 -9 4 -5 -3 -21 4 -37 16 -15 13
-24 17 -20 9 6 -9 1 -8 -16 3 -14 9 -28 13 -31 9 -4 -3 -7 -1 -7 6 0 7 -4 9
-10 6 -5 -3 -10 -2 -10 3 0 5 -18 15 -40 22 -21 7 -37 16 -35 20 2 4 -7 6 -20
4 -14 -1 -25 2 -25 7 0 6 -4 7 -10 4 -5 -3 -10 -2 -10 3 0 9 -30 23 -55 26 -5
1 -16 5 -22 9 -7 5 -17 5 -23 2 -5 -3 -10 -1 -10 5 0 7 -7 10 -15 6 -8 -3 -15
0 -15 6 0 6 -3 8 -7 5 -3 -4 -17 0 -31 9 -13 9 -21 11 -18 5 5 -7 1 -9 -8 -5
-9 3 -16 10 -16 14 0 5 -8 7 -17 5 -10 -1 -23 2 -30 7 -7 5 -16 7 -22 4 -5 -3
-11 -2 -13 4 -2 6 -18 11 -36 13 -17 1 -32 6 -32 10 0 5 -4 6 -9 3 -9 -6 -63
8 -93 24 -11 6 -18 5 -20 -2 -2 -6 -10 -4 -21 6 -12 13 -17 14 -17 4 0 -8 -3
-9 -8 -3 -4 6 -16 11 -27 12 -22 1 -70 11 -70 13 0 3 -41 9 -77 12 -21 2 -38
6 -38 10 0 4 -8 7 -17 7 -49 1 -104 8 -110 14 -11 12 -24 8 -17 -5 6 -10 4
-10 -7 -2 -8 6 -21 12 -29 12 -74 4 -118 10 -128 16 -7 4 -12 2 -12 -4 0 -6
-5 -8 -11 -4 -18 11 -99 12 -99 1 0 -5 -6 -5 -14 2 -7 6 -24 10 -37 7 -13 -2
-30 2 -38 8 -11 8 -13 8 -7 -1 4 -8 1 -13 -9 -13 -10 0 -13 5 -9 12 5 7 3 8
-7 2 -8 -5 -22 -7 -33 -5 -13 2 -16 -1 -10 -11 6 -10 5 -11 -7 -1 -9 7 -36 11
-65 9 -27 -1 -55 2 -63 8 -11 8 -13 8 -8 0z"/>
</g>
</svg>
